<?xml version="1.0" standalone="no"?>
<svg version="1.0" 
 width="100.000000pt" height="40.000000pt" viewBox="0 0 600.000000 500.000000"
 preserveAspectRatio="xMidYMid meet">

<g transform="translate(0.000000,95.000000) scale(0.100000,-0.100000)"
fill="#000000" stroke="none">
<path d="M0 475 l0 -475 2310 0 2310 0 0 475 0 475 -2310 0 -2310 0 0 -475z
m4590 -5 l0 -450 -2280 0 -2280 0 0 450 0 450 2280 0 2280 0 0 -450z"/>
<path d="M100 470 l0 -390 825 0 825 0 -1 390 -1 390 -824 0 -824 0 0 -390z
m501 111 c27 -33 25 -86 -6 -116 -25 -25 -35 -28 -92 -25 -33 2 -33 1 -33 -44
0 -34 -4 -46 -15 -46 -13 0 -15 21 -15 131 l0 131 71 -4 c60 -3 74 -8 90 -27z
m209 -66 c0 -104 -10 -137 -47 -154 -36 -16 -83 -14 -83 4 0 9 10 15 26 15 58
0 64 11 64 125 0 98 1 105 20 105 19 0 20 -7 20 -95z m259 -29 c28 -69 51
-127 51 -130 0 -3 -7 -6 -16 -6 -8 0 -20 14 -25 30 -11 29 -13 30 -76 30 -63
0 -65 -1 -76 -30 -7 -18 -19 -30 -29 -30 -17 0 -17 3 1 48 71 178 87 212 102
212 12 0 32 -36 68 -124z m161 69 l0 -55 70 0 70 0 0 55 c0 42 3 55 15 55 13
0 15 -21 15 -130 0 -109 -2 -130 -15 -130 -12 0 -15 13 -15 60 l0 60 -70 0
-70 0 0 -60 c0 -47 -3 -60 -15 -60 -13 0 -15 21 -15 130 0 109 2 130 15 130
12 0 15 -13 15 -55z"/>
<path d="M470 525 l0 -55 44 0 c35 0 48 5 60 22 21 30 20 44 -4 68 -13 13 -33
20 -60 20 l-40 0 0 -55z"/>
<path d="M985 524 c-39 -91 -40 -84 16 -84 56 0 56 -1 19 83 l-18 40 -17 -39z"/>
<path d="M1894 606 c-92 -41 -109 -166 -33 -231 25 -21 41 -25 89 -25 52 0 64
4 93 30 36 31 54 69 34 71 -33 4 -62 -2 -78 -17 -40 -36 -109 -7 -109 47 0 55
56 83 101 50 16 -12 43 -21 65 -21 l36 0 -19 31 c-38 66 -116 94 -179 65z"/>
<path d="M2206 610 c-68 -21 -106 -96 -86 -169 32 -118 219 -127 267 -13 25
59 3 132 -50 166 -29 20 -95 27 -131 16z m77 -71 c28 -15 37 -28 37 -58 0 -35
-28 -61 -66 -61 -61 0 -86 71 -38 109 31 24 37 25 67 10z"/>
<path d="M2764 606 c-34 -15 -44 -33 -44 -76 0 -35 35 -65 85 -74 39 -8 57
-32 34 -47 -20 -13 -27 -11 -45 9 -10 13 -25 17 -45 14 -33 -5 -36 -17 -14
-49 33 -47 141 -48 178 -2 38 48 12 97 -68 126 -29 11 -50 25 -50 33 0 21 44
25 51 6 9 -24 74 -22 74 2 0 50 -96 85 -156 58z"/>
<path d="M4235 613 c-58 -15 -95 -67 -95 -133 0 -83 53 -133 137 -132 79 2
119 36 133 115 l7 37 -78 0 c-78 0 -79 0 -79 -25 0 -22 4 -25 35 -25 41 0 46
-16 10 -32 -34 -15 -83 6 -92 40 -16 65 42 112 99 79 31 -18 98 -23 98 -8 0
22 -52 68 -88 79 -41 12 -54 13 -87 5z"/>
<path d="M2440 481 l0 -131 35 0 35 0 0 60 c0 33 3 60 8 60 4 0 27 -27 50 -60
36 -50 49 -60 73 -60 l29 0 0 130 0 130 -35 0 -34 0 -3 -62 -3 -63 -45 60
c-37 48 -52 61 -78 63 l-32 3 0 -130z"/>
<path d="M2970 511 c0 -84 3 -102 21 -124 30 -39 87 -52 138 -31 55 22 71 59
71 168 l0 86 -40 0 -39 0 -3 -92 c-3 -90 -4 -93 -27 -96 -38 -6 -51 22 -51
110 l0 78 -35 0 -35 0 0 -99z"/>
<path d="M3250 480 l0 -130 90 0 90 0 0 35 0 35 -50 0 -50 0 0 95 0 95 -40 0
-40 0 0 -130z"/>
<path d="M3450 575 c0 -34 1 -35 40 -35 l40 0 0 -95 0 -95 40 0 40 0 0 95 0
95 40 0 c39 0 40 1 40 35 l0 35 -120 0 -120 0 0 -35z"/>
<path d="M3729 606 c-2 -2 -4 -60 -3 -128 l1 -123 37 -3 36 -3 0 130 0 131
-33 0 c-19 0 -36 -2 -38 -4z"/>
<path d="M3860 480 l0 -130 35 0 34 0 3 66 3 66 48 -66 c41 -55 53 -66 78 -66
l29 0 0 130 0 130 -35 0 -34 0 -3 -61 -3 -61 -47 61 c-40 51 -53 61 -78 61
l-30 0 0 -130z"/>
</g>
</svg>
