<?xml version="1.0" standalone="no"?>
<svg version="1.0" xmlns="http://www.w3.org/2000/svg"
 width="100.000000pt" height="100.000000pt" viewBox="0 0 500.000000 500.000000"
 preserveAspectRatio="xMidYMid meet">

<g transform="translate(0.000000,500.000000) scale(0.100000,-0.100000)"
fill="#000000" stroke="none">
<path d="M190 2500 l0 -480 2310 0 2310 0 0 480 0 480 -2310 0 -2310 0 0 -480z
m4590 0 l0 -450 -2280 0 -2280 0 0 450 0 450 2280 0 2280 0 0 -450z"/>
<path d="M290 2500 l0 -390 825 0 826 0 -2 390 -1 390 -824 0 -824 0 0 -390z
m501 111 c27 -33 25 -86 -6 -116 -19 -20 -34 -25 -75 -25 l-50 0 0 -45 c0 -33
-4 -45 -15 -45 -13 0 -15 21 -15 131 l0 131 71 -4 c60 -3 74 -8 90 -27z m209
-66 c0 -104 -10 -137 -47 -154 -36 -16 -83 -14 -83 4 0 9 10 15 26 15 58 0 64
11 64 125 0 98 1 105 20 105 19 0 20 -7 20 -95z m259 -28 c28 -67 51 -126 51
-130 0 -21 -32 -3 -41 23 -11 29 -13 30 -76 30 -63 0 -65 -1 -76 -30 -7 -18
-19 -30 -29 -30 -17 0 -17 3 1 48 70 177 87 212 102 212 11 0 32 -38 68 -123z
m161 68 l0 -55 70 0 70 0 0 55 c0 42 3 55 15 55 13 0 15 -21 15 -130 0 -109
-2 -130 -15 -130 -12 0 -15 13 -15 60 l0 60 -70 0 -70 0 0 -60 c0 -47 -3 -60
-15 -60 -13 0 -15 21 -15 130 0 109 2 130 15 130 12 0 15 -13 15 -55z"/>
<path d="M660 2555 l0 -55 44 0 c35 0 48 5 60 22 21 30 20 44 -4 68 -13 13
-33 20 -60 20 l-40 0 0 -55z"/>
<path d="M1175 2554 c-39 -91 -40 -84 16 -84 56 0 56 -1 19 83 l-18 40 -17
-39z"/>
<path d="M2084 2636 c-92 -41 -109 -166 -33 -231 25 -21 41 -25 89 -25 52 0
64 4 93 30 34 30 54 69 36 71 -40 6 -57 3 -76 -14 -44 -39 -113 -12 -113 44 0
55 56 83 101 50 16 -12 43 -21 65 -21 l36 0 -19 31 c-38 66 -116 94 -179 65z"/>
<path d="M2396 2640 c-100 -32 -125 -172 -41 -236 61 -46 171 -30 211 31 38
58 21 145 -36 187 -31 21 -95 30 -134 18z m77 -71 c29 -16 37 -28 37 -60 0
-56 -77 -83 -112 -39 -26 32 -22 65 8 89 31 24 37 25 67 10z"/>
<path d="M2954 2636 c-34 -15 -44 -33 -44 -76 0 -35 37 -67 87 -76 37 -7 54
-31 32 -45 -20 -13 -27 -11 -45 9 -10 13 -25 17 -45 14 -33 -5 -36 -17 -14
-49 33 -47 141 -48 178 -2 38 48 12 97 -68 126 -29 11 -50 25 -50 33 0 21 44
25 51 6 9 -24 74 -22 74 2 0 51 -95 86 -156 58z"/>
<path d="M4425 2643 c-58 -15 -95 -67 -95 -133 0 -83 53 -133 137 -132 80 2
133 50 133 122 l0 30 -75 0 c-73 0 -75 -1 -75 -25 0 -22 4 -25 35 -25 39 0 46
-14 14 -30 -43 -24 -99 11 -99 60 0 55 62 88 106 55 21 -16 94 -21 94 -6 0 22
-52 68 -88 79 -41 12 -54 13 -87 5z"/>
<path d="M2630 2511 l0 -131 35 0 35 0 0 60 c0 33 3 60 8 60 4 0 27 -27 50
-60 36 -50 49 -60 73 -60 l29 0 0 130 0 130 -35 0 -34 0 -3 -62 -3 -63 -45 60
c-37 48 -52 61 -78 63 l-32 3 0 -130z"/>
<path d="M3160 2541 c0 -84 3 -102 21 -124 47 -61 155 -53 191 14 13 25 18 56
18 121 l0 88 -40 0 -39 0 -3 -92 c-3 -90 -4 -93 -27 -96 -38 -6 -51 22 -51
110 l0 78 -35 0 -35 0 0 -99z"/>
<path d="M3440 2510 l0 -130 90 0 90 0 0 35 0 35 -50 0 -50 0 0 95 0 95 -40 0
-40 0 0 -130z"/>
<path d="M3640 2605 c0 -34 1 -35 40 -35 l40 0 0 -95 0 -95 40 0 40 0 0 95 0
95 40 0 c39 0 40 1 40 35 l0 35 -120 0 -120 0 0 -35z"/>
<path d="M3919 2633 c-1 -7 0 -226 1 -245 0 -5 16 -8 35 -8 l35 0 0 130 0 130
-35 0 c-19 0 -35 -3 -36 -7z"/>
<path d="M4050 2510 l0 -130 35 0 34 0 3 66 3 66 48 -66 c41 -55 53 -66 78
-66 l29 0 0 130 0 130 -35 0 -34 0 -3 -61 -3 -61 -47 61 c-40 51 -53 61 -78
61 l-30 0 0 -130z"/>
</g>
</svg>
